# xmcd
#
# Track frame offsets: 
#        150
#        18145
#        29745
#        39997
#        66452
#        80687
#        96630
#        108770
#        122945
#        138615
#        158284
#        170327
#        191925
#        205782
#        219490
#        233447
#        245230
#        258460
#        273975
#        288087
#        302590
#        315257
#        329025
#        340595
#
# Disc length: 4706 seconds
#
# Revision: 3
# Processed by: cddbd v1.5.1PL0 Copyright (c) Steve Scherf et al.
# Submitted via: ExactAudioCopy v0.95a5
#
DISCID=5c126018
DTITLE=Jackson 5 - Third Album and Maybe Tomorrow
DYEAR=1971
DGENRE=R&B/Soul
TTITLE0=I'll Be There
TTITLE1=Ready Or Not (Here I Come)
TTITLE2=Oh How Happy
TTITLE3=Bridge Over Troubled Water
TTITLE4=Can I See You In The Morning
TTITLE5=Goin' Back To Indiana
TTITLE6=How Funky Is Your Chicken
TTITLE7=Mama's Pearl
TTITLE8=Reach In
TTITLE9=The Love I Saw In You Was Just A Mirage
TTITLE10=Darling Dear
TTITLE11=Maybe Tomorrow
TTITLE12=She's Good
TTITLE13=Never Can Say Goodbye
TTITLE14=The Wall
TTITLE15=Petals
TTITLE16=16 Candles
TTITLE17=(We've Got) Blue Skies
TTITLE18=My Little Baby
TTITLE19=It's Great To Be Here
TTITLE20=Honey Chile
TTITLE21=I Will Find A Way
TTITLE22=Sugar Daddy
TTITLE23=I'm So Happy
EXTD=Two classic albums one CD\n2 Bonus Tracks
EXTT0=
EXTT1=
EXTT2=
EXTT3=
EXTT4=
EXTT5=
EXTT6=
EXTT7=
EXTT8=
EXTT9=
EXTT10=
EXTT11=
EXTT12=
EXTT13=
EXTT14=
EXTT15=
EXTT16=
EXTT17=
EXTT18=
EXTT19=
EXTT20=
EXTT21=
EXTT22=
EXTT23=
PLAYORDER=
